<svg xmlns="http://www.w3.org/2000/svg" version="1.1" xmlns:xlink="http://www.w3.org/1999/xlink" xmlns:svgjs="http://svgjs.dev/svgjs" width="1000" height="1125" viewBox="0 0 1000 1125"><g transform="matrix(1,0,0,1,1.7053025658242404e-13,0)"><svg viewBox="0 0 320 360" data-background-color="#ffffff" preserveAspectRatio="xMidYMid meet" height="1125" width="1000" xmlns="http://www.w3.org/2000/svg" xmlns:xlink="http://www.w3.org/1999/xlink"><g id="tight-bounds" transform="matrix(1,0,0,1,0,0)"><svg viewBox="0 0 320 360" height="360" width="320"><g><svg></svg></g><g><svg viewBox="0 0 320 360" height="360" width="320"><g><path xmlns="http://www.w3.org/2000/svg" d="M20.961 227.22l3.726 4.658-1.863-6.056c-0.466-2.795-3.726 0.466-1.863 1.398M25.153 224.425c1.397 2.329 2.795 4.658 2.795 6.987 0 3.261 2.795 4.658 5.123 5.589-3.261-3.726-5.124-13.974-7.918-12.576M204.017 26.929c7.918 0 15.371-0.932 23.756 0.931 20.495 5.124 37.729 15.371 49.374 29.811l32.606 52.169c1.397 13.042 4.192 27.482 3.726 43.319 3.261 0 2.795-4.658 6.521-5.59-3.726 9.316-5.59 20.961-6.521 34.469-2.329-7.453 0-18.632 0.466-24.687-3.261 5.124-5.124 1.397-5.124-0.932 0.466-3.726-1.397-3.261-2.795-4.658-5.124-4.658-8.384-9.782-12.11-17.7 2.329-6.055 2.795-14.905-4.658-19.563-2.329-1.397-5.124-3.726-6.521-7.453-1.863-5.124-5.124-11.179-4.193-19.097 0.466-2.329-6.987 5.124-11.179 1.863-18.166-12.576-36.332-27.016-58.224-39.127-11.645 0-20.029-4.192-24.221-9.316-3.726-4.658-0.932-10.713 4.658-11.179 3.261 0 6.987-0.932 9.782 0.932 0.466-1.863 2.329-4.192 4.657-4.192M157.904 16.215l0.932 0.466c4.658 0.932 6.987 7.453 12.11 5.124 0 3.261 0.466 6.521-0.466 8.85-1.397 3.726-5.59 3.726-8.85 3.726-31.208-1.863-49.374 11.179-68.471 22.358-5.124 3.261-10.713 5.59-14.906 9.782-20.029 18.632-41.921 35.866-47.045 70.335l-4.192 38.195c-0.466 4.192-5.124 8.384-4.192 13.508l3.26 22.824c-3.261-3.261-5.124 0.932-4.192 2.795 0.466 1.397 2.329 6.055 5.124 1.863 3.726 6.987 7.453 20.495 12.576 26.55 15.837 18.632 36.332 35.4 53.101 52.169 4.192-0.932 7.453-0.932 8.384-3.727 1.397 2.795-1.397 5.59-3.726 6.056 7.453 4.658 15.837 8.85 27.016 9.781 14.44 0.932 27.948 3.261 40.524 6.522 6.521-1.863 13.042-2.795 20.029-3.261 2.329 0 3.726-3.726 6.521-4.658l0.466-4.658c2.795 4.192 2.329-1.397 0.466-4.192 3.261 2.795 4.192 5.124 5.589 6.987 0-1.397 3.726-6.521 3.727-0.466l0.931-6.055c1.397-0.932 1.863 5.124 3.261 0.931 1.397-4.192 4.192-0.932 6.987-2.329-0.932 1.863-0.466 5.59 2.794 3.261l3.727-3.261c2.329 5.59 6.055 3.261 7.918 2.329 20.495-13.042 40.99-28.413 60.553-43.784l-0.466 6.055 2.329-7.453c2.329 2.329 4.192 0.466 5.124-0.931 2.795-4.658 6.521-9.316 12.577-13.508-7.453 20.029-16.303 35.866-27.482 48.908l-4.658 5.59c0 3.261-0.932 7.453-4.658 7.918-1.863 0.466-5.59-0.932-8.384 1.863-1.397 1.863 3.261 5.59-0.466 2.795-3.261-2.329-6.521 0-10.248 0.932-2.795 0.932 1.863 3.726 2.795 5.589 0.932 1.863 1.863 3.726 1.398 6.056l-5.124-5.59c-6.055 3.261-9.782 9.316-14.906 13.974-2.329 1.863-1.397 5.124-1.397 7.918-3.261 0-6.987-0.932-8.85 0.932-1.397 1.863-0.932 4.658-0.932 7.453-4.658-0.466-5.124-7.453-9.315-6.056-4.192 0.932-8.85 1.397-12.577 3.727 2.795 5.59-4.658 2.329-3.726 3.26-6.987-4.192-13.042-7.453-20.495-4.658-15.837-5.124-35.4-2.795-49.84-0.931 0-2.329 0.466-4.658-0.466-5.124-0.932 2.329-3.726 1.397-3.26 1.397-8.85-6.055-17.7-9.782-27.016-14.905-8.384 0.932-16.303-3.261-18.632-5.59-6.521-6.055-13.974-2.795-20.029-4.192-13.042-3.261-17.7-16.769-19.098-26.084-0.932-4.658-4.658-6.521-6.055-6.056-6.055-19.563-15.371-37.263-22.824-55.429-1.863-4.658-1.397-9.316-1.397-14.44 2.329 0.932 4.658 0.466 4.192-2.794-2.329-15.371-7.918-27.016-13.974-38.195 3.261-15.837 3.726-34.469 11.179-48.443 6.521-12.576 18.632-19.098 27.016-29.811 2.795-3.726 2.795-8.85 5.59-12.11 9.316-9.316 18.632-19.098 28.879-27.482 4.658-3.726 10.247 0 17.234-1.397 2.329-8.384 11.645-15.837 20.495-13.508 3.726 0.932 11.179-8.85 13.508-9.782 3.726-1.397 1.863 3.726 1.863 6.987 8.85-6.987 20.961-10.713 32.14-14.906" fill="#093d65" fill-rule="nonzero" stroke="none" stroke-width="1" stroke-linecap="butt" stroke-linejoin="miter" stroke-miterlimit="10" stroke-dasharray="" stroke-dashoffset="0" font-family="none" font-weight="none" font-size="none" text-anchor="none" style="mix-blend-mode: normal" data-fill-palette-color="tertiary"></path></g><g transform="matrix(1,0,0,1,64,120.35688864812575)"><svg viewBox="0 0 192 119.2862227037485" height="119.2862227037485" width="192"><g><svg viewBox="0 0 192 119.2862227037485" height="119.2862227037485" width="192"><g><svg viewBox="0 0 192 119.2862227037485" height="119.2862227037485" width="192"><g transform="matrix(1,0,0,1,0,72.09879827811368)"><svg viewBox="0 0 192 47.18742442563482" height="47.18742442563482" width="192"><g id="textblocktransform"><svg viewBox="0 0 192 47.18742442563482" height="47.18742442563482" width="192" id="textblock"><g><svg viewBox="0 0 192 47.18742442563482" height="47.18742442563482" width="192"><g transform="matrix(1,0,0,1,0,0)"><svg width="192" viewBox="0 -38.22999954223633 161.50999450683594 39.689998626708984" height="47.18742442563482" data-palette-color="#093d65"><path d="M11.38-35.4L11.38-35.4 15.09-35.16Q16.46-29.1 20.7-18.04 24.95-6.98 26.32-1.51L26.32-1.51Q26.32-0.1 25.83 0.61 25.34 1.32 24.61 1.32L24.61 1.32Q23.97 1.32 23.41 0.81 22.85 0.29 22.66-0.63L22.66-0.63Q22.22-2.78 19.82-9.23L19.82-9.23Q9.77-10.5 7.18-10.79L7.18-10.79Q6.54-9.03 5.62-5.08 4.69-1.12 4.15 0.39L4.15 0.39Q3.42 1.27 2.49 1.27L2.49 1.27Q1.46 1.27 0.73 0.37 0-0.54 0-1.86L0-1.86Q1.56-7.57 5.66-18.65 9.77-29.74 11.38-35.4ZM13.09-30.47L13.09-30.47Q12.11-24.56 7.67-13.13L7.67-13.13 13.13-13.13Q16.85-13.13 19.34-12.89L19.34-12.89Q14.31-23.68 13.09-30.47ZM31.59 0.93L31.59 0.93 28.85 1.46 28.27-37.11Q29.64-37.79 31.98-38.23L31.98-38.23Q31.93-37.11 31.93-34.72L31.93-34.72Q31.93-29.44 32.32-24.27L32.32-24.27Q34.67-25.59 37.3-25.59L37.3-25.59Q40.04-25.59 41.94-24.29 43.85-23 44.77-20.75 45.7-18.51 46.09-16.21 46.48-13.92 46.48-11.23L46.48-11.23Q46.48-8.3 45.58-5.59 44.68-2.88 42.45-0.85 40.23 1.17 37.06 1.17L37.06 1.17Q34.32 1.17 31.64-0.54L31.64-0.54Q31.59-0.05 31.59 0.93ZM32.18-19.48L32.18-19.48 32.03-3.76Q32.32-2.88 33.86-2.37 35.4-1.86 37.2-1.86L37.2-1.86Q38.91-1.86 40.06-2.51 41.21-3.17 41.79-4.42 42.38-5.66 42.6-7.03 42.82-8.4 42.82-10.16L42.82-10.16Q42.82-11.96 42.62-13.7 42.43-15.43 41.84-17.5 41.26-19.58 39.94-20.85 38.62-22.12 36.67-22.12L36.67-22.12Q35.25-22.12 34.01-21.41 32.76-20.7 32.18-19.48ZM50.68-35.16L50.68-35.16 53.22-34.57Q53.36-32.57 53.44-28.17 53.51-23.78 53.61-22.12L53.61-22.12Q56.25-24.9 59.96-24.9L59.96-24.9Q63.28-24.9 65.69-22.56 68.11-20.21 68.11-16.31L68.11-16.31 68.11-0.24Q67.48 0.05 66.5 0.05L66.5 0.05Q65.42 0.05 64.55-0.15L64.55-0.15Q64.55-0.54 64.57-1.34 64.59-2.15 64.59-2.54L64.59-2.54Q64.59-4.44 64.45-9.11 64.3-13.77 64.3-16.89L64.3-16.89Q63.57-21.39 59.76-21.39L59.76-21.39Q58.1-21.39 56.49-20.48 54.88-19.58 54.15-18.36L54.15-18.36Q54.29-15.28 54.34-9.08 54.39-2.88 54.49-0.15L54.49-0.15Q53.32 0.05 52.49 0.05L52.49 0.05Q51.26 0.05 50.43-0.24L50.43-0.24Q50.53-2.64 50.53-7.81L50.53-7.81Q50.53-10.11 50.48-16.24 50.43-22.36 50.46-26.78 50.48-31.2 50.68-35.16ZM73.19-25.1L73.19-25.1 75.43-24.61Q75.82-20.61 76.12-12.04 76.41-3.47 76.51-1.42L76.51-1.42Q76.07 0.1 74.8 0.1L74.8 0.1Q73.92 0.1 73.11-0.61 72.31-1.32 72.11-2.34L72.11-2.34Q72.21-4.35 72.5-12.77 72.8-21.19 73.19-25.1ZM73.87-33.84L73.87-33.84Q75.19-33.84 76.07-32.69 76.95-31.54 76.95-30.08L76.95-30.08Q76.95-29 76.43-28.34 75.92-27.69 75.04-27.69L75.04-27.69Q73.67-27.69 72.89-28.81 72.11-29.93 72.11-31.45L72.11-31.45Q72.11-32.52 72.58-33.18 73.04-33.84 73.87-33.84ZM95.99-23.54L95.99-23.54 95.5-21.58Q90.76-23.54 88.12-23.54L88.12-23.54Q85.78-23.54 84.83-22.83 83.88-22.12 83.88-19.82L83.88-19.82Q83.88-17.97 85.22-16.75 86.56-15.53 88.47-14.82 90.37-14.11 92.3-13.31 94.23-12.5 95.57-10.94 96.91-9.38 96.91-7.08L96.91-7.08Q96.91-3.96 94.62-1.61 92.32 0.73 88.66 0.78L88.66 0.78Q85.98 0.78 83.63-0.34 81.29-1.46 79.92-3.17L79.92-3.17 81.34-4.64Q81.92-4.39 83.07-3.86 84.22-3.32 84.71-3.15 85.2-2.98 86.15-2.78 87.1-2.59 88.17-2.59L88.17-2.59Q90.47-2.59 91.93-3.61 93.4-4.64 93.4-6.49L93.4-6.49Q93.4-7.71 92.71-8.57 92.03-9.42 90.91-9.96 89.78-10.5 88.44-10.99 87.1-11.47 85.76-12.08 84.41-12.7 83.29-13.55 82.17-14.4 81.48-15.87 80.8-17.33 80.8-19.34L80.8-19.34Q80.8-22.27 82.39-24.24 83.97-26.22 86.86-26.22L86.86-26.22Q87.98-26.22 89.39-25.88 90.81-25.54 91.64-25.24 92.47-24.95 94.11-24.29 95.74-23.63 95.99-23.54ZM100.13-35.16L100.13-35.16 102.67-34.57Q102.82-32.57 102.89-28.17 102.97-23.78 103.06-22.12L103.06-22.12Q105.7-24.9 109.41-24.9L109.41-24.9Q112.73-24.9 115.15-22.56 117.57-20.21 117.57-16.31L117.57-16.31 117.57-0.24Q116.93 0.05 115.95 0.05L115.95 0.05Q114.88 0.05 114-0.15L114-0.15Q114-0.54 114.03-1.34 114.05-2.15 114.05-2.54L114.05-2.54Q114.05-4.44 113.9-9.11 113.76-13.77 113.76-16.89L113.76-16.89Q113.02-21.39 109.22-21.39L109.22-21.39Q107.56-21.39 105.94-20.48 104.33-19.58 103.6-18.36L103.6-18.36Q103.75-15.28 103.8-9.08 103.84-2.88 103.94-0.15L103.94-0.15Q102.77 0.05 101.94 0.05L101.94 0.05Q100.72 0.05 99.89-0.24L99.89-0.24Q99.99-2.64 99.99-7.81L99.99-7.81Q99.99-10.11 99.94-16.24 99.89-22.36 99.91-26.78 99.94-31.2 100.13-35.16ZM141.24-4.74L141.24-4.74 141.73-2.59Q139.58-1.81 135.36-0.85 131.14 0.1 129.09 0.1L129.09 0.1Q126.99 0.1 125.42-1.29 123.86-2.69 123.08-4.86 122.3-7.03 121.93-9.16 121.57-11.28 121.57-13.33L121.57-13.33Q121.57-25.54 132.6-25.54L132.6-25.54Q135.24-25.54 137.24-23.85 139.24-22.17 139.24-19.48L139.24-19.48Q139.24-18.02 138.44-16.89 137.63-15.77 136.48-15.11 135.34-14.45 133.55-13.92 131.77-13.38 130.4-13.13 129.04-12.89 127.13-12.6 125.23-12.3 124.5-12.16L124.5-12.16Q124.55-10.74 124.67-9.67 124.79-8.59 125.16-7.35 125.52-6.1 126.13-5.3 126.74-4.49 127.82-3.96 128.89-3.42 130.36-3.42L130.36-3.42Q132.11-3.42 134.65-3.74 137.19-4.05 139.17-4.39 141.15-4.74 141.24-4.74ZM124.69-15.19L124.69-15.19Q131.33-17.09 135.58-19.19L135.58-19.19Q135.24-20.8 134.65-21.53 134.07-22.27 132.9-22.27L132.9-22.27Q129.92-22.27 127.5-20.21 125.08-18.16 124.69-15.19ZM161.51 0L161.51 0 157.01-0.1Q155.21-1.9 152.06-5.93 148.91-9.96 148.08-10.89L148.08-10.89 148.08-0.83Q147.64 0.63 146.37 0.63L146.37 0.63Q145.49 0.63 144.68-0.07 143.88-0.78 143.68-1.81L143.68-1.81Q143.83-6.84 143.83-18.51 143.83-30.18 144.03-35.25L144.03-35.25 147-34.62Q147.05-32.67 147.17-26.61 147.3-20.56 147.39-17.58L147.39-17.58 159.26-26.27 160.09-24.07Q155.45-20.7 149.2-14.55L149.2-14.55Q150.52-13.13 155.04-7.64 159.55-2.15 161.51 0Z" opacity="1" transform="matrix(1,0,0,1,0,0)" fill="#093d65" class="undefined-text-0" data-fill-palette-color="primary" id="text-0"></path></svg></g></svg></g></svg></g></svg></g><g transform="matrix(1,0,0,1,54.35759155463805,0)"><svg viewBox="0 0 83.2848168907239 65.21302055622733" height="65.21302055622733" width="83.2848168907239"><g><svg xmlns="http://www.w3.org/2000/svg" xmlns:xlink="http://www.w3.org/1999/xlink" version="1.1" x="0" y="0" viewBox="5.0001115798950195 14.763997077941895 89.99988555908203 70.47100067138672" enable-background="new 0 0 100 100" xml:space="preserve" height="65.21302055622733" width="83.2848168907239" class="icon-icon-0" data-fill-palette-color="accent" id="icon-0"><path d="M64.226 70.58c4.544-4.09 7.713-9.571 8.765-15.736L95 53.631l-21.635-2.782c0.003-0.167 0.012-0.339 0.012-0.512 0-12.275-8.33-22.708-19.852-26.381l-2.108-9.192-5.548 7.818c-0.473-0.022-0.949-0.039-1.43-0.039-13.508 0-24.881 8.942-28.053 20.983L5.057 42.068c-0.128 0.423 0 16.526 0 16.526l11.565-0.634c0.387 1.308 0.868 2.565 1.444 3.784L7.455 76.695l12.631 0.963 4.268-7.351c5.208 4.835 12.289 7.812 20.085 7.812 4.457 0 8.677-0.975 12.453-2.71l10.692 9.826L64.226 70.58zM47.249 30.889l2.07 16.871-11.042-1.419L47.249 30.889zM29.779 45.251l-8.274-1.068c2.624-9.015 10.856-15.803 20.842-16.644L29.779 45.251zM32.019 57.108l18.321-1.007 1.833 14.974 0.716 0.656c-2.627 0.957-5.473 1.486-8.45 1.486-6.908 0-13.138-2.844-17.492-7.373L32.019 57.108zM60.771 55.522l6.955-0.384c-0.801 3.601-2.49 6.889-4.832 9.648L60.771 55.522zM59.284 49.04l-4.426-19.286c7.888 3.706 13.341 11.468 13.396 20.438L59.284 49.04z" fill="#f98e54" data-fill-palette-color="accent"></path></svg></g></svg></g><g></g></svg></g></svg></g></svg></g></svg></g><defs></defs></svg><rect width="320" height="360" fill="none" stroke="none" visibility="hidden"></rect></g></svg></g></svg>